{"accessors" : [{"bufferView" : 0, "byteOffset" : 0, "componentType" : 5125, "count" : 1566558, "type" : "SCALAR", "max" : [1564823], "min" : [0]}, {"bufferView" : 1, "byteOffset" : 0, "componentType" : 5126, "count" : 1564824, "type" : "VEC3", "max" : [38.3402099609375, 29.02273941040039, 100.00064086914062], "min" : [-29.38998794555664, -34.59138488769531, 0.0006402768776752055]}, {"bufferView" : 1, "byteOffset" : 12, "componentType" : 5126, "count" : 1564824, "type" : "VEC3", "max" : [0.9999983906745911, 1.0000044107437134, 1.000000238418579], "min" : [-1.0000033378601074, -1.0000044107437134, -1.0000032186508179]}], "asset" : {"generator" : "Aspose.3D 21.1", "version" : "2.0"}, "buffers" : [{"uri" : "buffer.bin", "byteLength" : 43863632}], "bufferViews" : [{"buffer" : 0, "byteOffset" : 0, "byteLength" : 6266232, "target" : 34963}, {"buffer" : 0, "byteOffset" : 6266236, "byteLength" : 37597392, "byteStride" : 24, "target" : 34962}], "meshes" : [{"primitives" : [{"attributes" : {"POSITION" : 1, "NORMAL" : 2}, "indices" : 0, "mode" : 4}]}], "nodes" : [{"mesh" : 0, "name" : ""}], "scene" : 0, "scenes" : [{"nodes" : [0]}]}